<svg width="13" height="17" viewBox="0 0 13 17" fill="none" xmlns="http://www.w3.org/2000/svg">
<path fill-rule="evenodd" clip-rule="evenodd" d="M2.09253 0.340905C1.5469 0.496374 1.09554 0.99267 0.981324 1.56267C0.9541 1.69857 0.943419 3.43626 0.943419 7.72775V13.7036L0.727479 13.8107C0.457461 13.9446 0.255301 14.1612 0.123729 14.4575C0.0268947 14.6756 0.0210996 14.7146 0.00657778 15.249C-0.0075397 15.7683 -0.00326057 15.8231 0.0630478 15.9682C0.110286 16.0716 0.179525 16.1519 0.265713 16.2033L0.396645 16.2812H5.23931H10.082L10.2075 16.2065C10.4126 16.0843 10.4567 15.9661 10.4725 15.4954C10.5038 14.5647 10.2969 14.0813 9.75114 13.8107L9.5352 13.7036V12.8548V12.006L10.1333 11.9852C10.8316 11.9609 11.0931 11.9073 11.479 11.7094C12.3035 11.2866 12.8643 10.452 12.9747 9.48369C12.9948 9.30794 13.0041 7.97459 12.9983 6.10467L12.9888 3.01599L12.5676 2.12945C12.336 1.64186 12.0907 1.17474 12.0226 1.09144C11.7133 0.713332 11.1474 0.805314 10.9466 1.26633C10.8166 1.56499 10.8358 1.62622 11.4814 2.96639C11.4872 2.97839 11.4117 3.02445 11.3138 3.06873C10.8709 3.26887 10.4662 3.67889 10.2495 4.14698C10.0363 4.60761 10.0069 4.83235 10.0069 6.00012C10.0069 6.9544 10.0105 7.01224 10.0775 7.13854C10.2085 7.38556 10.2778 7.40649 11.0093 7.41963L11.6579 7.4313V8.42282C11.6579 9.2949 11.6503 9.43873 11.595 9.61645C11.4352 10.1297 11.0222 10.4906 10.5036 10.5701C10.3879 10.5879 10.1227 10.6027 9.91425 10.6031L9.5352 10.6038V6.05286C9.5352 2.82224 9.52422 1.44705 9.49737 1.31271C9.39999 0.825917 9.07435 0.46413 8.61753 0.335263C8.35014 0.259813 2.35884 0.264991 2.09253 0.340905ZM7.65269 2.16137C7.8433 2.26581 7.85054 2.32594 7.85054 3.80155C7.85054 5.27715 7.8433 5.33728 7.65269 5.44173C7.56297 5.4909 7.27149 5.49765 5.23931 5.49765C2.70315 5.49765 2.78654 5.50457 2.6792 5.28458C2.60362 5.12968 2.60291 2.47484 2.67842 2.32009C2.7889 2.0937 2.64995 2.10545 5.21478 2.10545C7.26923 2.10545 7.56293 2.1122 7.65269 2.16137Z" fill="#0F1D2D"/>
</svg>
