<svg width="15" height="17" viewBox="0 0 15 17" fill="none" xmlns="http://www.w3.org/2000/svg">
<path d="M7.60006 3.00078C3.77606 3.00078 0.664062 6.11278 0.664062 9.93678C0.664062 13.7608 3.77606 16.8808 7.60006 16.8808C11.4241 16.8808 14.5361 13.7688 14.5361 9.94478C14.5361 6.12078 11.4241 3.00078 7.60006 3.00078ZM8.20006 9.68078C8.20006 10.0088 7.92806 10.2808 7.60006 10.2808C7.27206 10.2808 7.00006 10.0088 7.00006 9.68078V5.68078C7.00006 5.35278 7.27206 5.08078 7.60006 5.08078C7.92806 5.08078 8.20006 5.35278 8.20006 5.68078V9.68078Z" fill="#0F1D2D"/>
<path d="M9.91094 2.03578H5.28694C4.96694 2.03578 4.71094 1.77978 4.71094 1.45978C4.71094 1.13978 4.96694 0.875778 5.28694 0.875778H9.91094C10.2309 0.875778 10.4869 1.13178 10.4869 1.45178C10.4869 1.77178 10.2309 2.03578 9.91094 2.03578Z" fill="#0F1D2D"/>
</svg>
